{"title":"IMPACT.WRESTLING.2017.03.23.HDTV.XviD-FICEK9","magnet":"magnet:?xt=urn:btih:4361c54e2822570d1814f5275c338e729ec23b37&dn=IMPACT.WRESTLING.2017.03.23.HDTV.XviD-FICEK9&tr=udp%3A%2F%2Ftracker.leechers-paradise.org%3A6969&tr=udp%3A%2F%2Fzer0day.ch%3A1337&tr=udp%3A%2F%2Fopen.demonii.com%3A1337&tr=udp%3A%2F%2Ftracker.coppersurfer.tk%3A6969&tr=udp%3A%2F%2Fexodus.desync.com%3A6969","uploader":"Browse FICEK9","categoryP":"video","categoryS":"tv_shows","size":"939396934","seeders":"0","leechers":"0","description":"\r\n   General\r\n      Complete name : IMPACT.WRESTLING.2017.03.23.HDTV.XviD-FICEK9.avi\r\n      Format : AVI\r\n      Format/Info : Audio Video Interleave\r\n      File size : 896 MiB\r\n      Duration : 1 h 31 min\r\n      Overall bit rate mode : Variable\r\n      Overall bit rate : 1 373 kb/s\r\n      Writing application : MEncoder sherpya-r37853+g6d7f566-5.3.1\r\n      Writing library : MPlayer\r\n   Video #0\r\n      ID : 0\r\n      Format : MPEG-4 Visual\r\n      Format profile : Advanced <a class=\"__cf_email__\" href=\"/cdn-cgi/l/email-protection\" data-cfemail=\"edbe84809d8188ada1d8\">[email&#xA0;protected]</a><script data-cfhash=\"f9e31\" type=\"text/javascript\">/* <![CDATA[ */!function(t,e,r,n,c,a,p){try{t=document.currentScript||function(){for(t=document.getElementsByTagName('script'),e=t.length;e--;)if(t[e].getAttribute('data-cfhash'))return t[e]}();if(t&&(c=t.previousSibling)){p=t.parentNode;if(a=c.getAttribute('data-cfemail')){for(e='',r='0x'+a.substr(0,2)|0,n=2;a.length-n;n+=2)e+='%'+('0'+('0x'+a.substr(n,2)^r).toString(16)).slice(-2);p.replaceChild(document.createTextNode(decodeURIComponent(e)),c)}p.removeChild(t)}}catch(u){}}()/* ]]> */</script>\r\n      Format settings, BVOP : 2\r\n      Format settings, QPel : No\r\n      Format settings, GMC : No warppoints\r\n      Format settings, Matrix : Default (H.263)\r\n      Codec ID : XVID\r\n      Codec ID/Hint : XviD\r\n      Duration : 1 h 31 min\r\n      Bit rate : 1 238 kb/s\r\n      Width : 624 pixels\r\n      Height : 352 pixels\r\n      Display aspect ratio : 16:9\r\n      Original display aspect ratio : 16:9\r\n      Frame rate : 29.970 (29970/1000) FPS\r\n      Color space : YUV\r\n      Chroma subsampling : 4:2:0\r\n      Bit depth : 8 bits\r\n      Scan type : Progressive\r\n      Compression mode : Lossy\r\n      Bits/(Pixel*Frame) : 0.188\r\n      Stream size : 807 MiB (90%)\r\n      Writing library : XviD 64\r\n   Audio #1\r\n      ID : 1\r\n      Format : MPEG Audio\r\n      Format version : Version 1\r\n      Format profile : Layer 3\r\n      Mode : Joint stereo\r\n      Mode extension : MS Stereo\r\n      Codec ID : 55\r\n      Codec ID/Hint : MP3\r\n      Duration : 1 h 31 min\r\n      Bit rate mode : Variable\r\n      Bit rate : 122 kb/s\r\n      Channel(s) : 2 channels\r\n      Sampling rate : 48.0 kHz\r\n      Compression mode : Lossy\r\n      Stream size : 79.5 MiB (9%)\r\n      Alignment : Aligned on interleaves\r\n      Interleave, duration : 24  ms (0.72 video frame)\r\n      Interleave, preload duration : 428  ms","last_updated":"2017-04-25T12:31:57.243Z","parsed":{"xt":"urn:btih:4361c54e2822570d1814f5275c338e729ec23b37","dn":"IMPACT.WRESTLING.2017.03.23.HDTV.XviD-FICEK9","tr":["udp://exodus.desync.com:6969","udp://open.demonii.com:1337","udp://tracker.coppersurfer.tk:6969","udp://tracker.leechers-paradise.org:6969","udp://zer0day.ch:1337"],"infoHash":"4361c54e2822570d1814f5275c338e729ec23b37","infoHashBuffer":{"type":"Buffer","data":[67,97,197,78,40,34,87,13,24,20,245,39,92,51,142,114,158,194,59,55]},"name":"IMPACT.WRESTLING.2017.03.23.HDTV.XviD-FICEK9","announce":["udp://exodus.desync.com:6969","udp://open.demonii.com:1337","udp://tracker.coppersurfer.tk:6969","udp://tracker.leechers-paradise.org:6969","udp://zer0day.ch:1337"],"urlList":[]}}